<mxfile host="Electron" modified="2024-09-15T05:35:16.620Z" agent="Mozilla/5.0 (Windows NT 10.0; Win64; x64) AppleWebKit/537.36 (KHTML, like Gecko) draw.io/24.2.5 Chrome/120.0.6099.109 Electron/28.1.0 Safari/537.36" etag="ffz9ANHdDHOxQreaQWGe" version="24.2.5" type="device">
  <diagram name="PÃ¡gina-1" id="oWMA1OTzQUzjHcTuQTdv">
    <mxGraphModel dx="1120" dy="542" grid="1" gridSize="10" guides="1" tooltips="1" connect="1" arrows="1" fold="1" page="1" pageScale="1" pageWidth="4000" pageHeight="4000" math="0" shadow="0">
      <root>
        <mxCell id="0" />
        <mxCell id="1" parent="0" />
        <mxCell id="91vAcofIBv7KAojCEJ---3" style="edgeStyle=orthogonalEdgeStyle;rounded=0;orthogonalLoop=1;jettySize=auto;html=1;exitX=0.5;exitY=1;exitDx=0;exitDy=0;exitPerimeter=0;entryX=0.5;entryY=0;entryDx=0;entryDy=0;" edge="1" parent="1" source="91vAcofIBv7KAojCEJ---1" target="91vAcofIBv7KAojCEJ---2">
          <mxGeometry relative="1" as="geometry" />
        </mxCell>
        <mxCell id="91vAcofIBv7KAojCEJ---1" value="Shell(datos, tam, dis)" style="strokeWidth=2;html=1;shape=mxgraph.flowchart.start_1;whiteSpace=wrap;" vertex="1" parent="1">
          <mxGeometry x="430" y="90" width="100" height="60" as="geometry" />
        </mxCell>
        <mxCell id="91vAcofIBv7KAojCEJ---2" value="comp=false&lt;div&gt;i=0&lt;/div&gt;" style="rounded=1;whiteSpace=wrap;html=1;absoluteArcSize=1;arcSize=14;strokeWidth=2;" vertex="1" parent="1">
          <mxGeometry x="430" y="200" width="100" height="60" as="geometry" />
        </mxCell>
        <mxCell id="91vAcofIBv7KAojCEJ---8" style="edgeStyle=orthogonalEdgeStyle;rounded=0;orthogonalLoop=1;jettySize=auto;html=1;exitX=1;exitY=0.5;exitDx=0;exitDy=0;exitPerimeter=0;entryX=0.5;entryY=0;entryDx=0;entryDy=0;" edge="1" parent="1" source="91vAcofIBv7KAojCEJ---4" target="91vAcofIBv7KAojCEJ---5">
          <mxGeometry relative="1" as="geometry" />
        </mxCell>
        <mxCell id="91vAcofIBv7KAojCEJ---4" value="i&amp;lt;dis" style="strokeWidth=2;html=1;shape=mxgraph.flowchart.decision;whiteSpace=wrap;" vertex="1" parent="1">
          <mxGeometry x="440" y="310" width="80" height="70" as="geometry" />
        </mxCell>
        <mxCell id="91vAcofIBv7KAojCEJ---5" value="j=i" style="rounded=1;whiteSpace=wrap;html=1;absoluteArcSize=1;arcSize=14;strokeWidth=2;" vertex="1" parent="1">
          <mxGeometry x="570" y="390" width="80" height="40" as="geometry" />
        </mxCell>
        <mxCell id="91vAcofIBv7KAojCEJ---6" style="edgeStyle=orthogonalEdgeStyle;rounded=0;orthogonalLoop=1;jettySize=auto;html=1;exitX=0.5;exitY=1;exitDx=0;exitDy=0;entryX=0.5;entryY=0;entryDx=0;entryDy=0;entryPerimeter=0;" edge="1" parent="1" source="91vAcofIBv7KAojCEJ---2" target="91vAcofIBv7KAojCEJ---4">
          <mxGeometry relative="1" as="geometry" />
        </mxCell>
        <mxCell id="91vAcofIBv7KAojCEJ---25" style="edgeStyle=orthogonalEdgeStyle;rounded=0;orthogonalLoop=1;jettySize=auto;html=1;exitX=0;exitY=0.5;exitDx=0;exitDy=0;exitPerimeter=0;entryX=0.5;entryY=0;entryDx=0;entryDy=0;" edge="1" parent="1" source="91vAcofIBv7KAojCEJ---7" target="91vAcofIBv7KAojCEJ---24">
          <mxGeometry relative="1" as="geometry" />
        </mxCell>
        <mxCell id="91vAcofIBv7KAojCEJ---7" value="j+dis&amp;lt;tam" style="strokeWidth=2;html=1;shape=mxgraph.flowchart.decision;whiteSpace=wrap;" vertex="1" parent="1">
          <mxGeometry x="570" y="470" width="80" height="70" as="geometry" />
        </mxCell>
        <mxCell id="91vAcofIBv7KAojCEJ---9" value="Si" style="text;html=1;align=center;verticalAlign=middle;whiteSpace=wrap;rounded=0;" vertex="1" parent="1">
          <mxGeometry x="510" y="310" width="60" height="30" as="geometry" />
        </mxCell>
        <mxCell id="91vAcofIBv7KAojCEJ---10" style="edgeStyle=orthogonalEdgeStyle;rounded=0;orthogonalLoop=1;jettySize=auto;html=1;exitX=0.5;exitY=1;exitDx=0;exitDy=0;entryX=0.5;entryY=0;entryDx=0;entryDy=0;entryPerimeter=0;" edge="1" parent="1" source="91vAcofIBv7KAojCEJ---5" target="91vAcofIBv7KAojCEJ---7">
          <mxGeometry relative="1" as="geometry" />
        </mxCell>
        <mxCell id="91vAcofIBv7KAojCEJ---16" style="edgeStyle=orthogonalEdgeStyle;rounded=0;orthogonalLoop=1;jettySize=auto;html=1;exitX=1;exitY=0.5;exitDx=0;exitDy=0;exitPerimeter=0;entryX=0.5;entryY=0;entryDx=0;entryDy=0;" edge="1" parent="1" source="91vAcofIBv7KAojCEJ---12" target="91vAcofIBv7KAojCEJ---15">
          <mxGeometry relative="1" as="geometry" />
        </mxCell>
        <mxCell id="91vAcofIBv7KAojCEJ---20" style="edgeStyle=orthogonalEdgeStyle;rounded=0;orthogonalLoop=1;jettySize=auto;html=1;exitX=0;exitY=0.5;exitDx=0;exitDy=0;exitPerimeter=0;" edge="1" parent="1" source="91vAcofIBv7KAojCEJ---12" target="91vAcofIBv7KAojCEJ---18">
          <mxGeometry relative="1" as="geometry" />
        </mxCell>
        <mxCell id="91vAcofIBv7KAojCEJ---12" value="datos[j]&amp;gt;datos[j+dis]" style="strokeWidth=2;html=1;shape=mxgraph.flowchart.decision;whiteSpace=wrap;" vertex="1" parent="1">
          <mxGeometry x="630" y="540" width="150" height="70" as="geometry" />
        </mxCell>
        <mxCell id="91vAcofIBv7KAojCEJ---13" style="edgeStyle=orthogonalEdgeStyle;rounded=0;orthogonalLoop=1;jettySize=auto;html=1;exitX=1;exitY=0.5;exitDx=0;exitDy=0;exitPerimeter=0;entryX=0.5;entryY=0;entryDx=0;entryDy=0;entryPerimeter=0;" edge="1" parent="1" source="91vAcofIBv7KAojCEJ---7" target="91vAcofIBv7KAojCEJ---12">
          <mxGeometry relative="1" as="geometry" />
        </mxCell>
        <mxCell id="91vAcofIBv7KAojCEJ---14" value="Si" style="text;html=1;align=center;verticalAlign=middle;whiteSpace=wrap;rounded=0;" vertex="1" parent="1">
          <mxGeometry x="640" y="470" width="60" height="30" as="geometry" />
        </mxCell>
        <mxCell id="91vAcofIBv7KAojCEJ---19" style="edgeStyle=orthogonalEdgeStyle;rounded=0;orthogonalLoop=1;jettySize=auto;html=1;exitX=0.5;exitY=1;exitDx=0;exitDy=0;entryX=0.5;entryY=0;entryDx=0;entryDy=0;" edge="1" parent="1" source="91vAcofIBv7KAojCEJ---15" target="91vAcofIBv7KAojCEJ---18">
          <mxGeometry relative="1" as="geometry" />
        </mxCell>
        <mxCell id="91vAcofIBv7KAojCEJ---15" value="swap(datos[j], datos[j+dis]&lt;div&gt;comp=true&lt;/div&gt;" style="rounded=1;whiteSpace=wrap;html=1;absoluteArcSize=1;arcSize=14;strokeWidth=2;" vertex="1" parent="1">
          <mxGeometry x="770" y="610" width="150" height="40" as="geometry" />
        </mxCell>
        <mxCell id="91vAcofIBv7KAojCEJ---17" value="Si" style="text;html=1;align=center;verticalAlign=middle;whiteSpace=wrap;rounded=0;" vertex="1" parent="1">
          <mxGeometry x="780" y="540" width="60" height="30" as="geometry" />
        </mxCell>
        <mxCell id="91vAcofIBv7KAojCEJ---18" value="j+=dis" style="rounded=1;whiteSpace=wrap;html=1;absoluteArcSize=1;arcSize=14;strokeWidth=2;" vertex="1" parent="1">
          <mxGeometry x="650" y="690" width="150" height="40" as="geometry" />
        </mxCell>
        <mxCell id="91vAcofIBv7KAojCEJ---21" value="No" style="text;html=1;align=center;verticalAlign=middle;whiteSpace=wrap;rounded=0;" vertex="1" parent="1">
          <mxGeometry x="520" y="460" width="60" height="30" as="geometry" />
        </mxCell>
        <mxCell id="91vAcofIBv7KAojCEJ---22" value="" style="endArrow=classic;html=1;rounded=0;exitX=0.5;exitY=1;exitDx=0;exitDy=0;" edge="1" parent="1" source="91vAcofIBv7KAojCEJ---18">
          <mxGeometry width="50" height="50" relative="1" as="geometry">
            <mxPoint x="770" y="840" as="sourcePoint" />
            <mxPoint x="610" y="450" as="targetPoint" />
            <Array as="points">
              <mxPoint x="725" y="790" />
              <mxPoint x="970" y="790" />
              <mxPoint x="970" y="450" />
            </Array>
          </mxGeometry>
        </mxCell>
        <mxCell id="91vAcofIBv7KAojCEJ---24" value="i++" style="rounded=1;whiteSpace=wrap;html=1;absoluteArcSize=1;arcSize=14;strokeWidth=2;" vertex="1" parent="1">
          <mxGeometry x="490" y="550" width="80" height="40" as="geometry" />
        </mxCell>
        <mxCell id="91vAcofIBv7KAojCEJ---26" value="" style="endArrow=classic;html=1;rounded=0;exitX=0.5;exitY=1;exitDx=0;exitDy=0;" edge="1" parent="1" source="91vAcofIBv7KAojCEJ---24">
          <mxGeometry width="50" height="50" relative="1" as="geometry">
            <mxPoint x="450" y="660" as="sourcePoint" />
            <mxPoint x="480" y="270" as="targetPoint" />
            <Array as="points">
              <mxPoint x="530" y="630" />
              <mxPoint x="470" y="630" />
              <mxPoint x="470" y="420" />
              <mxPoint x="550" y="420" />
              <mxPoint x="550" y="270" />
            </Array>
          </mxGeometry>
        </mxCell>
        <mxCell id="91vAcofIBv7KAojCEJ---32" style="edgeStyle=orthogonalEdgeStyle;rounded=0;orthogonalLoop=1;jettySize=auto;html=1;exitX=1;exitY=0.5;exitDx=0;exitDy=0;exitPerimeter=0;entryX=0.5;entryY=0;entryDx=0;entryDy=0;" edge="1" parent="1" source="91vAcofIBv7KAojCEJ---28" target="91vAcofIBv7KAojCEJ---31">
          <mxGeometry relative="1" as="geometry" />
        </mxCell>
        <mxCell id="91vAcofIBv7KAojCEJ---28" value="comp" style="strokeWidth=2;html=1;shape=mxgraph.flowchart.decision;whiteSpace=wrap;" vertex="1" parent="1">
          <mxGeometry x="220" y="375" width="80" height="70" as="geometry" />
        </mxCell>
        <mxCell id="91vAcofIBv7KAojCEJ---29" style="edgeStyle=orthogonalEdgeStyle;rounded=0;orthogonalLoop=1;jettySize=auto;html=1;exitX=0;exitY=0.5;exitDx=0;exitDy=0;exitPerimeter=0;entryX=0.5;entryY=0;entryDx=0;entryDy=0;entryPerimeter=0;" edge="1" parent="1" source="91vAcofIBv7KAojCEJ---4" target="91vAcofIBv7KAojCEJ---28">
          <mxGeometry relative="1" as="geometry" />
        </mxCell>
        <mxCell id="91vAcofIBv7KAojCEJ---30" value="No" style="text;html=1;align=center;verticalAlign=middle;whiteSpace=wrap;rounded=0;" vertex="1" parent="1">
          <mxGeometry x="380" y="310" width="60" height="30" as="geometry" />
        </mxCell>
        <mxCell id="91vAcofIBv7KAojCEJ---31" value="Shell(datos, tam, dis)" style="rounded=1;whiteSpace=wrap;html=1;absoluteArcSize=1;arcSize=14;strokeWidth=2;" vertex="1" parent="1">
          <mxGeometry x="280" y="465" width="150" height="40" as="geometry" />
        </mxCell>
        <mxCell id="91vAcofIBv7KAojCEJ---33" value="Fin" style="strokeWidth=2;html=1;shape=mxgraph.flowchart.terminator;whiteSpace=wrap;" vertex="1" parent="1">
          <mxGeometry x="230" y="570" width="100" height="60" as="geometry" />
        </mxCell>
        <mxCell id="91vAcofIBv7KAojCEJ---34" style="edgeStyle=orthogonalEdgeStyle;rounded=0;orthogonalLoop=1;jettySize=auto;html=1;exitX=0.5;exitY=1;exitDx=0;exitDy=0;entryX=0.5;entryY=0;entryDx=0;entryDy=0;entryPerimeter=0;" edge="1" parent="1" source="91vAcofIBv7KAojCEJ---31" target="91vAcofIBv7KAojCEJ---33">
          <mxGeometry relative="1" as="geometry" />
        </mxCell>
        <mxCell id="91vAcofIBv7KAojCEJ---35" style="edgeStyle=orthogonalEdgeStyle;rounded=0;orthogonalLoop=1;jettySize=auto;html=1;exitX=0;exitY=0.5;exitDx=0;exitDy=0;exitPerimeter=0;entryX=0.5;entryY=0;entryDx=0;entryDy=0;entryPerimeter=0;" edge="1" parent="1" source="91vAcofIBv7KAojCEJ---28" target="91vAcofIBv7KAojCEJ---33">
          <mxGeometry relative="1" as="geometry" />
        </mxCell>
        <mxCell id="91vAcofIBv7KAojCEJ---40" style="edgeStyle=orthogonalEdgeStyle;rounded=0;orthogonalLoop=1;jettySize=auto;html=1;exitX=0.5;exitY=1;exitDx=0;exitDy=0;exitPerimeter=0;entryX=0.5;entryY=0;entryDx=0;entryDy=0;" edge="1" parent="1" source="91vAcofIBv7KAojCEJ---36" target="91vAcofIBv7KAojCEJ---37">
          <mxGeometry relative="1" as="geometry" />
        </mxCell>
        <mxCell id="91vAcofIBv7KAojCEJ---36" value="Main" style="strokeWidth=2;html=1;shape=mxgraph.flowchart.start_1;whiteSpace=wrap;" vertex="1" parent="1">
          <mxGeometry x="1190" y="70" width="100" height="60" as="geometry" />
        </mxCell>
        <mxCell id="91vAcofIBv7KAojCEJ---37" value="dis=n/2" style="rounded=1;whiteSpace=wrap;html=1;absoluteArcSize=1;arcSize=14;strokeWidth=2;" vertex="1" parent="1">
          <mxGeometry x="1190" y="170" width="100" height="60" as="geometry" />
        </mxCell>
        <mxCell id="91vAcofIBv7KAojCEJ---42" style="edgeStyle=orthogonalEdgeStyle;rounded=0;orthogonalLoop=1;jettySize=auto;html=1;exitX=1;exitY=0.5;exitDx=0;exitDy=0;exitPerimeter=0;entryX=0.5;entryY=0;entryDx=0;entryDy=0;" edge="1" parent="1" source="91vAcofIBv7KAojCEJ---38" target="91vAcofIBv7KAojCEJ---41">
          <mxGeometry relative="1" as="geometry" />
        </mxCell>
        <mxCell id="91vAcofIBv7KAojCEJ---38" value="dis&amp;gt;0" style="strokeWidth=2;html=1;shape=mxgraph.flowchart.decision;whiteSpace=wrap;" vertex="1" parent="1">
          <mxGeometry x="1200" y="270" width="80" height="75" as="geometry" />
        </mxCell>
        <mxCell id="91vAcofIBv7KAojCEJ---39" style="edgeStyle=orthogonalEdgeStyle;rounded=0;orthogonalLoop=1;jettySize=auto;html=1;exitX=0.5;exitY=1;exitDx=0;exitDy=0;entryX=0.5;entryY=0;entryDx=0;entryDy=0;entryPerimeter=0;" edge="1" parent="1" source="91vAcofIBv7KAojCEJ---37" target="91vAcofIBv7KAojCEJ---38">
          <mxGeometry relative="1" as="geometry" />
        </mxCell>
        <mxCell id="91vAcofIBv7KAojCEJ---44" style="edgeStyle=orthogonalEdgeStyle;rounded=0;orthogonalLoop=1;jettySize=auto;html=1;exitX=0.5;exitY=1;exitDx=0;exitDy=0;" edge="1" parent="1" source="91vAcofIBv7KAojCEJ---41" target="91vAcofIBv7KAojCEJ---43">
          <mxGeometry relative="1" as="geometry" />
        </mxCell>
        <mxCell id="91vAcofIBv7KAojCEJ---41" value="Shell(datos, n, dis)" style="rounded=1;whiteSpace=wrap;html=1;absoluteArcSize=1;arcSize=14;strokeWidth=2;" vertex="1" parent="1">
          <mxGeometry x="1290" y="350" width="130" height="60" as="geometry" />
        </mxCell>
        <mxCell id="91vAcofIBv7KAojCEJ---43" value="dis/=2" style="rounded=1;whiteSpace=wrap;html=1;absoluteArcSize=1;arcSize=14;strokeWidth=2;" vertex="1" parent="1">
          <mxGeometry x="1305" y="430" width="100" height="60" as="geometry" />
        </mxCell>
        <mxCell id="91vAcofIBv7KAojCEJ---45" value="" style="endArrow=classic;html=1;rounded=0;exitX=0.5;exitY=1;exitDx=0;exitDy=0;" edge="1" parent="1" source="91vAcofIBv7KAojCEJ---43">
          <mxGeometry width="50" height="50" relative="1" as="geometry">
            <mxPoint x="1440" y="540" as="sourcePoint" />
            <mxPoint x="1240" y="240" as="targetPoint" />
            <Array as="points">
              <mxPoint x="1355" y="540" />
              <mxPoint x="1470" y="540" />
              <mxPoint x="1470" y="240" />
            </Array>
          </mxGeometry>
        </mxCell>
        <mxCell id="91vAcofIBv7KAojCEJ---46" value="Si" style="text;html=1;align=center;verticalAlign=middle;whiteSpace=wrap;rounded=0;" vertex="1" parent="1">
          <mxGeometry x="1270" y="260" width="60" height="30" as="geometry" />
        </mxCell>
        <mxCell id="91vAcofIBv7KAojCEJ---49" value="No" style="text;html=1;align=center;verticalAlign=middle;whiteSpace=wrap;rounded=0;" vertex="1" parent="1">
          <mxGeometry x="590" y="540" width="60" height="30" as="geometry" />
        </mxCell>
        <mxCell id="91vAcofIBv7KAojCEJ---50" value="No" style="text;html=1;align=center;verticalAlign=middle;whiteSpace=wrap;rounded=0;" vertex="1" parent="1">
          <mxGeometry x="1150" y="250" width="60" height="30" as="geometry" />
        </mxCell>
        <mxCell id="91vAcofIBv7KAojCEJ---51" value="Fin" style="strokeWidth=2;html=1;shape=mxgraph.flowchart.terminator;whiteSpace=wrap;" vertex="1" parent="1">
          <mxGeometry x="1080" y="370" width="100" height="60" as="geometry" />
        </mxCell>
        <mxCell id="91vAcofIBv7KAojCEJ---52" style="edgeStyle=orthogonalEdgeStyle;rounded=0;orthogonalLoop=1;jettySize=auto;html=1;exitX=0;exitY=0.5;exitDx=0;exitDy=0;exitPerimeter=0;entryX=0.41;entryY=0.017;entryDx=0;entryDy=0;entryPerimeter=0;" edge="1" parent="1" source="91vAcofIBv7KAojCEJ---38" target="91vAcofIBv7KAojCEJ---51">
          <mxGeometry relative="1" as="geometry" />
        </mxCell>
      </root>
    </mxGraphModel>
  </diagram>
</mxfile>
